<svg id="codecollegelogo.svg" xmlns="http://www.w3.org/2000/svg" width="480" height="480" viewBox="0 0 480 480">
  <defs>
    <style>
      .cls-1 {
        fill: #272727;
      }

      .cls-2 {
        fill: #fff;
      }

      .cls-2, .cls-3 {
        fill-rule: evenodd;
      }

      .cls-3 {
        fill: #fedc32;
      }
    </style>
  </defs>
  <rect id="bg" class="cls-1" width="480" height="480"/>
  <path id="college" class="cls-2" d="M34.888,312.794a33.872,33.872,0,0,0,7.7,11.084A34.242,34.242,0,0,0,54.1,331.064,39.181,39.181,0,0,0,68.235,333.6a39.322,39.322,0,0,0,14.936-2.678,33.09,33.09,0,0,0,11.084-7.186L80.541,307.3a14.038,14.038,0,0,1-4.368,3.757,13.034,13.034,0,0,1-6.623,1.6,13.671,13.671,0,0,1-5.166-.986A12.367,12.367,0,0,1,60.11,308.8,14.084,14.084,0,0,1,57.2,304.34a15.083,15.083,0,0,1-1.08-5.871,16.432,16.432,0,0,1,1.033-5.965,13.29,13.29,0,0,1,2.865-4.556,12.381,12.381,0,0,1,4.274-2.865,13.923,13.923,0,0,1,5.26-.986,15.178,15.178,0,0,1,6.294,1.268,12.114,12.114,0,0,1,4.7,3.71l13.715-16.532a33.728,33.728,0,0,0-11.46-6.717,42.38,42.38,0,0,0-14.56-2.489A39.876,39.876,0,0,0,54.1,265.826a34.039,34.039,0,0,0-11.507,7.093A33.234,33.234,0,0,0,34.888,284a35.917,35.917,0,0,0-2.818,14.466A35.335,35.335,0,0,0,34.888,312.794Zm61.9-.141a33.176,33.176,0,0,0,7.75,11.225,34.464,34.464,0,0,0,11.695,7.186,43.587,43.587,0,0,0,29.307,0,35,35,0,0,0,11.742-7.186,32.865,32.865,0,0,0,7.8-11.225,36.6,36.6,0,0,0,2.818-14.56,35.6,35.6,0,0,0-2.818-14.419,31.744,31.744,0,0,0-7.8-10.943,35,35,0,0,0-11.742-6.952,45.186,45.186,0,0,0-29.307,0,34.468,34.468,0,0,0-11.695,6.952,32.035,32.035,0,0,0-7.75,10.943,35.584,35.584,0,0,0-2.818,14.419A36.584,36.584,0,0,0,96.792,312.653Zm21.934-20.431a12.932,12.932,0,0,1,2.724-4.509,12.285,12.285,0,0,1,4.18-2.865,13.375,13.375,0,0,1,5.26-1.033,12.9,12.9,0,0,1,9.394,3.9,12.617,12.617,0,0,1,2.771,4.509,16.858,16.858,0,0,1,.986,5.871,17.532,17.532,0,0,1-.986,6.012,14.042,14.042,0,0,1-2.771,4.7,12.4,12.4,0,0,1-9.394,4.133,12.86,12.86,0,0,1-5.26-1.08,11.92,11.92,0,0,1-4.18-3.053,14.425,14.425,0,0,1-2.724-4.7,17.532,17.532,0,0,1-.986-6.012A16.858,16.858,0,0,1,118.726,292.222Zm56.219,39.5h44.62V312.465H197.49V265.216H174.945v66.506Zm49.222,0h44.619V312.465H246.711V265.216H224.167v66.506Zm49.221,0h47.344v-18.6h-26.3v-6.2h23.2V289.545h-23.2v-5.73h24.7v-18.6H273.388v66.506Zm95.626,1.174a69.794,69.794,0,0,0,7.186-1.362,54.042,54.042,0,0,0,6.481-2.02,34.742,34.742,0,0,0,5.4-2.583V290.578H357.554v17.566h10.708v5.073a7.162,7.162,0,0,1-2.348.7,18.81,18.81,0,0,1-2.912.235q-7.985,0-11.6-4.368t-3.616-11.319a15.662,15.662,0,0,1,1.221-6.294,15.867,15.867,0,0,1,3.194-4.837,13.864,13.864,0,0,1,9.863-4.181,15.033,15.033,0,0,1,6.951,1.456,15.946,15.946,0,0,1,4.885,3.9l13.057-15.687a30.62,30.62,0,0,0-11.414-6.952,43.1,43.1,0,0,0-14.794-2.536,39.5,39.5,0,0,0-14.091,2.489,34.14,34.14,0,0,0-11.46,7.093A33.221,33.221,0,0,0,327.5,284a38.539,38.539,0,0,0,0,28.932,32.407,32.407,0,0,0,7.749,11.037,34.108,34.108,0,0,0,11.648,7,42.441,42.441,0,0,0,14.607,2.443A55.349,55.349,0,0,0,369.014,332.9Zm27.9-1.174h47.343v-18.6h-26.3v-6.2h23.2V289.545h-23.2v-5.73h24.705v-18.6H396.912v66.506Z"/>
  <path id="code" class="cls-3" d="M38.183,216.42a52.428,52.428,0,0,0,11.924,17.159A53.014,53.014,0,0,0,67.922,244.7a60.671,60.671,0,0,0,21.886,3.926,60.883,60.883,0,0,0,23.122-4.144,51.241,51.241,0,0,0,17.159-11.125l-21.231-25.448a21.754,21.754,0,0,1-6.762,5.817A20.191,20.191,0,0,1,91.843,216.2a21.146,21.146,0,0,1-8-1.527,19.133,19.133,0,0,1-6.617-4.435,21.806,21.806,0,0,1-4.508-6.908,23.346,23.346,0,0,1-1.672-9.088,25.433,25.433,0,0,1,1.6-9.235,20.57,20.57,0,0,1,4.435-7.052,19.165,19.165,0,0,1,6.617-4.436A21.536,21.536,0,0,1,91.843,172a23.483,23.483,0,0,1,9.743,1.963,18.75,18.75,0,0,1,7.271,5.744l21.231-25.594a52.194,52.194,0,0,0-17.741-10.4,65.579,65.579,0,0,0-22.54-3.854,61.7,61.7,0,0,0-21.886,3.854A52.685,52.685,0,0,0,50.108,154.69a51.45,51.45,0,0,0-11.924,17.159,55.605,55.605,0,0,0-4.363,22.4A54.7,54.7,0,0,0,38.183,216.42Zm95.832-.218a51.34,51.34,0,0,0,12,17.377,53.376,53.376,0,0,0,18.1,11.125,67.5,67.5,0,0,0,45.37,0,54.181,54.181,0,0,0,18.178-11.125,50.881,50.881,0,0,0,12.07-17.377,56.644,56.644,0,0,0,4.362-22.54,55.1,55.1,0,0,0-4.362-22.322,49.161,49.161,0,0,0-12.07-16.941,54.155,54.155,0,0,0-18.178-10.761,69.943,69.943,0,0,0-45.37,0,53.345,53.345,0,0,0-18.1,10.761,49.591,49.591,0,0,0-12,16.941,55.1,55.1,0,0,0-4.362,22.322A56.644,56.644,0,0,0,134.015,216.2Zm33.955-31.629a20.056,20.056,0,0,1,4.218-6.98,19.009,19.009,0,0,1,6.471-4.435,20.683,20.683,0,0,1,8.143-1.6,19.973,19.973,0,0,1,14.542,6.035,19.542,19.542,0,0,1,4.29,6.98,26.11,26.11,0,0,1,1.527,9.089,27.154,27.154,0,0,1-1.527,9.307,21.739,21.739,0,0,1-4.29,7.271,19.2,19.2,0,0,1-14.542,6.4,19.9,19.9,0,0,1-8.143-1.672,18.446,18.446,0,0,1-6.471-4.726,22.364,22.364,0,0,1-4.218-7.271,27.154,27.154,0,0,1-1.527-9.307A26.11,26.11,0,0,1,167.97,184.573ZM296.3,245.722a79.555,79.555,0,0,0,22.1-3.054,55.057,55.057,0,0,0,18.759-9.379,45.8,45.8,0,0,0,13.015-16.215q4.87-9.887,4.872-23.412,0-14.834-5.09-24.576a42.666,42.666,0,0,0-13.6-15.632,54.118,54.118,0,0,0-19.632-8.289,110.42,110.42,0,0,0-23.34-2.4H255V245.722h41.3Zm-0.291-73.582q10.906,0,17.45,5.58t6.544,15.581q0,12.03-6.544,17.32t-18.759,5.29h-6.4V172.14h7.707Zm69.945,73.582h73.291V216.929H398.53v-9.6h35.919v-26.9H398.53v-8.871h38.245V142.765H365.956V245.722Z"/>
</svg>
